<svg xmlns="http://www.w3.org/2000/svg" xmlns:xlink="http://www.w3.org/1999/xlink" width="500" zoomAndPan="magnify" viewBox="0 0 375 374.999991" height="500" preserveAspectRatio="xMidYMid meet" version="1.0"><defs><g/><clipPath id="19acb46178"><path d="M 37.5 37.5 L 337.5 37.5 L 337.5 337.5 L 37.5 337.5 Z M 37.5 37.5 " clip-rule="nonzero"/></clipPath><clipPath id="d759b3488d"><path d="M 187.5 37.5 C 104.65625 37.5 37.5 104.65625 37.5 187.5 C 37.5 270.34375 104.65625 337.5 187.5 337.5 C 270.34375 337.5 337.5 270.34375 337.5 187.5 C 337.5 104.65625 270.34375 37.5 187.5 37.5 Z M 187.5 37.5 " clip-rule="nonzero"/></clipPath><clipPath id="5eb5ac9e81"><path d="M 67 137 L 120 137 L 120 206 L 67 206 Z M 67 137 " clip-rule="nonzero"/></clipPath><clipPath id="e89ffc1c2e"><path d="M 67.539062 143.25 L 75.296875 137.722656 L 119.585938 199.894531 L 111.828125 205.421875 Z M 67.539062 143.25 " clip-rule="nonzero"/></clipPath><clipPath id="dfc1d9fdaa"><path d="M 67.539062 143.25 L 75.296875 137.722656 L 119.570312 199.878906 L 111.816406 205.402344 Z M 67.539062 143.25 " clip-rule="nonzero"/></clipPath><clipPath id="845a0616b3"><path d="M 283.59375 213.894531 L 337.5 213.894531 L 337.5 239.515625 L 283.59375 239.515625 Z M 283.59375 213.894531 " clip-rule="nonzero"/></clipPath></defs><g clip-path="url(#19acb46178)"><g clip-path="url(#d759b3488d)"><path fill="#272727" d="M 37.5 37.5 L 337.5 37.5 L 337.5 337.5 L 37.5 337.5 Z M 37.5 37.5 " fill-opacity="1" fill-rule="nonzero"/></g></g><g fill="#ffffff" fill-opacity="1"><g transform="translate(80.611178, 239.400325)"><g><path d="M 78.296875 0 L 43.75 0 L 43.75 -41.71875 L 1.09375 -107.515625 L 40.78125 -107.515625 L 61.40625 -71.71875 L 62.03125 -71.71875 L 82.671875 -107.515625 L 120.328125 -107.515625 L 78.296875 -41.71875 Z M 78.296875 0 "/></g></g></g><path stroke-linecap="butt" transform="matrix(0.494289, 0, 0, 0.494289, 119.961465, 78.262113)" fill="none" stroke-linejoin="miter" d="M 275.995117 325.996182 L 266.891131 295.35716 L 190.637346 295.35716 L 181.525458 325.996182 L 110.052846 325.996182 L 189.396612 108.49627 L 270.668653 108.49627 L 350.012419 325.996182 Z M 205.217949 246.652417 L 252.302626 246.652417 L 229.534758 169.165801 L 228.301927 169.165801 Z M 205.217949 246.652417 " stroke="#272727" stroke-width="45.050236" stroke-opacity="1" stroke-miterlimit="4"/><g fill="#ffffff" fill-opacity="1"><g transform="translate(172.796324, 239.400325)"><g><path d="M 83.609375 0 L 79.078125 -15.15625 L 41.40625 -15.15625 L 36.875 0 L 1.5625 0 L 40.78125 -107.515625 L 80.953125 -107.515625 L 120.171875 0 Z M 48.59375 -39.21875 L 71.875 -39.21875 L 60.625 -77.5 L 60 -77.5 Z M 48.59375 -39.21875 "/></g></g></g><g clip-path="url(#5eb5ac9e81)"><g clip-path="url(#e89ffc1c2e)"><g clip-path="url(#dfc1d9fdaa)"><path fill="#ffffff" d="M 67.539062 143.25 L 75.296875 137.722656 L 119.5625 199.867188 L 111.804688 205.390625 Z M 67.539062 143.25 " fill-opacity="1" fill-rule="nonzero"/></g></g></g><g clip-path="url(#845a0616b3)"><path fill="#ffffff" d="M 283.59375 213.894531 L 337.539062 213.894531 L 337.539062 239.515625 L 283.59375 239.515625 Z M 283.59375 213.894531 " fill-opacity="1" fill-rule="nonzero"/></g><path stroke-linecap="butt" transform="matrix(0.75, -0.000000000000000372, 0.000000000000000372, 0.75, 76.942396, 116.714992)" fill="none" stroke-linejoin="miter" d="M -0.00132 1.999802 L 65.186184 1.999802 " stroke="#ffffff" stroke-width="4" stroke-opacity="1" stroke-miterlimit="4"/><g fill="#ffffff" fill-opacity="1"><g transform="translate(113.201438, 265.444142)"><g><path d="M -0.5 -13.625 L 3.234375 -13.625 L 6.078125 -9.265625 L 8.921875 -13.625 L 12.65625 -13.625 L 7.625 -6.109375 L 7.625 0 L 4.53125 0 L 4.53125 -6.109375 Z M -0.5 -13.625 "/></g></g></g><g fill="#ffffff" fill-opacity="1"><g transform="translate(126.428068, 265.444142)"><g><path d="M 7.90625 -13.625 L 13.40625 0 L 10.078125 0 L 9.0625 -2.71875 L 3.875 -2.71875 L 2.875 0 L -0.46875 0 L 5.03125 -13.625 Z M 8.015625 -5.453125 L 6.484375 -9.40625 L 6.453125 -9.40625 L 4.9375 -5.453125 Z M 8.015625 -5.453125 "/></g></g></g><g fill="#ffffff" fill-opacity="1"><g transform="translate(140.447258, 265.444142)"><g><path d="M 6.015625 -13.875 C 6.753906 -13.875 7.472656 -13.765625 8.171875 -13.546875 C 8.878906 -13.335938 9.40625 -13.128906 9.75 -12.921875 L 10.234375 -12.578125 L 8.984375 -10.109375 C 8.878906 -10.171875 8.738281 -10.253906 8.5625 -10.359375 C 8.394531 -10.460938 8.066406 -10.601562 7.578125 -10.78125 C 7.097656 -10.957031 6.644531 -11.046875 6.21875 -11.046875 C 5.707031 -11.046875 5.3125 -10.9375 5.03125 -10.71875 C 4.75 -10.5 4.609375 -10.203125 4.609375 -9.828125 C 4.609375 -9.640625 4.671875 -9.460938 4.796875 -9.296875 C 4.929688 -9.140625 5.160156 -8.96875 5.484375 -8.78125 C 5.804688 -8.601562 6.085938 -8.457031 6.328125 -8.34375 C 6.566406 -8.238281 6.941406 -8.078125 7.453125 -7.859375 C 8.328125 -7.484375 9.078125 -6.972656 9.703125 -6.328125 C 10.328125 -5.691406 10.640625 -4.960938 10.640625 -4.140625 C 10.640625 -3.359375 10.5 -2.675781 10.21875 -2.09375 C 9.9375 -1.507812 9.550781 -1.050781 9.0625 -0.71875 C 8.570312 -0.394531 8.03125 -0.15625 7.4375 0 C 6.84375 0.164062 6.195312 0.25 5.5 0.25 C 4.90625 0.25 4.320312 0.1875 3.75 0.0625 C 3.175781 -0.0507812 2.695312 -0.195312 2.3125 -0.375 C 1.925781 -0.5625 1.578125 -0.742188 1.265625 -0.921875 C 0.960938 -1.097656 0.738281 -1.25 0.59375 -1.375 L 0.375 -1.546875 L 1.9375 -4.15625 C 2.0625 -4.050781 2.238281 -3.910156 2.46875 -3.734375 C 2.707031 -3.566406 3.117188 -3.335938 3.703125 -3.046875 C 4.296875 -2.765625 4.816406 -2.625 5.265625 -2.625 C 6.578125 -2.625 7.234375 -3.070312 7.234375 -3.96875 C 7.234375 -4.15625 7.1875 -4.328125 7.09375 -4.484375 C 7 -4.640625 6.832031 -4.796875 6.59375 -4.953125 C 6.363281 -5.117188 6.15625 -5.25 5.96875 -5.34375 C 5.789062 -5.4375 5.492188 -5.578125 5.078125 -5.765625 C 4.660156 -5.960938 4.351562 -6.109375 4.15625 -6.203125 C 3.332031 -6.617188 2.691406 -7.128906 2.234375 -7.734375 C 1.785156 -8.347656 1.5625 -9.007812 1.5625 -9.71875 C 1.5625 -10.9375 2.015625 -11.929688 2.921875 -12.703125 C 3.828125 -13.484375 4.859375 -13.875 6.015625 -13.875 Z M 6.015625 -13.875 "/></g></g></g><g fill="#ffffff" fill-opacity="1"><g transform="translate(152.617142, 265.444142)"><g><path d="M 6.015625 -13.875 C 6.753906 -13.875 7.472656 -13.765625 8.171875 -13.546875 C 8.878906 -13.335938 9.40625 -13.128906 9.75 -12.921875 L 10.234375 -12.578125 L 8.984375 -10.109375 C 8.878906 -10.171875 8.738281 -10.253906 8.5625 -10.359375 C 8.394531 -10.460938 8.066406 -10.601562 7.578125 -10.78125 C 7.097656 -10.957031 6.644531 -11.046875 6.21875 -11.046875 C 5.707031 -11.046875 5.3125 -10.9375 5.03125 -10.71875 C 4.75 -10.5 4.609375 -10.203125 4.609375 -9.828125 C 4.609375 -9.640625 4.671875 -9.460938 4.796875 -9.296875 C 4.929688 -9.140625 5.160156 -8.96875 5.484375 -8.78125 C 5.804688 -8.601562 6.085938 -8.457031 6.328125 -8.34375 C 6.566406 -8.238281 6.941406 -8.078125 7.453125 -7.859375 C 8.328125 -7.484375 9.078125 -6.972656 9.703125 -6.328125 C 10.328125 -5.691406 10.640625 -4.960938 10.640625 -4.140625 C 10.640625 -3.359375 10.5 -2.675781 10.21875 -2.09375 C 9.9375 -1.507812 9.550781 -1.050781 9.0625 -0.71875 C 8.570312 -0.394531 8.03125 -0.15625 7.4375 0 C 6.84375 0.164062 6.195312 0.25 5.5 0.25 C 4.90625 0.25 4.320312 0.1875 3.75 0.0625 C 3.175781 -0.0507812 2.695312 -0.195312 2.3125 -0.375 C 1.925781 -0.5625 1.578125 -0.742188 1.265625 -0.921875 C 0.960938 -1.097656 0.738281 -1.25 0.59375 -1.375 L 0.375 -1.546875 L 1.9375 -4.15625 C 2.0625 -4.050781 2.238281 -3.910156 2.46875 -3.734375 C 2.707031 -3.566406 3.117188 -3.335938 3.703125 -3.046875 C 4.296875 -2.765625 4.816406 -2.625 5.265625 -2.625 C 6.578125 -2.625 7.234375 -3.070312 7.234375 -3.96875 C 7.234375 -4.15625 7.1875 -4.328125 7.09375 -4.484375 C 7 -4.640625 6.832031 -4.796875 6.59375 -4.953125 C 6.363281 -5.117188 6.15625 -5.25 5.96875 -5.34375 C 5.789062 -5.4375 5.492188 -5.578125 5.078125 -5.765625 C 4.660156 -5.960938 4.351562 -6.109375 4.15625 -6.203125 C 3.332031 -6.617188 2.691406 -7.128906 2.234375 -7.734375 C 1.785156 -8.347656 1.5625 -9.007812 1.5625 -9.71875 C 1.5625 -10.9375 2.015625 -11.929688 2.921875 -12.703125 C 3.828125 -13.484375 4.859375 -13.875 6.015625 -13.875 Z M 6.015625 -13.875 "/></g></g></g><g fill="#ffffff" fill-opacity="1"><g transform="translate(164.787023, 265.444142)"><g><path d="M 4.09375 -13.625 L 4.09375 0 L 0.984375 0 L 0.984375 -13.625 Z M 4.09375 -13.625 "/></g></g></g><g fill="#ffffff" fill-opacity="1"><g transform="translate(170.946651, 265.444142)"><g><path d="M 0.984375 -13.625 L 5.859375 -13.625 C 7.171875 -13.625 8.238281 -13.273438 9.0625 -12.578125 C 9.894531 -11.878906 10.3125 -10.878906 10.3125 -9.578125 C 10.3125 -8.578125 10.054688 -7.738281 9.546875 -7.0625 C 9.046875 -6.382812 8.367188 -5.90625 7.515625 -5.625 L 12.203125 0 L 8.265625 0 L 4.09375 -5.390625 L 4.09375 0 L 0.984375 0 Z M 4.09375 -7.578125 L 4.453125 -7.578125 C 4.742188 -7.578125 4.988281 -7.582031 5.1875 -7.59375 C 5.382812 -7.601562 5.609375 -7.640625 5.859375 -7.703125 C 6.117188 -7.773438 6.320312 -7.867188 6.46875 -7.984375 C 6.625 -8.109375 6.753906 -8.285156 6.859375 -8.515625 C 6.972656 -8.753906 7.03125 -9.035156 7.03125 -9.359375 C 7.03125 -9.691406 6.972656 -9.972656 6.859375 -10.203125 C 6.753906 -10.429688 6.625 -10.609375 6.46875 -10.734375 C 6.320312 -10.859375 6.117188 -10.953125 5.859375 -11.015625 C 5.609375 -11.078125 5.382812 -11.113281 5.1875 -11.125 C 4.988281 -11.132812 4.742188 -11.140625 4.453125 -11.140625 L 4.09375 -11.140625 Z M 4.09375 -7.578125 "/></g></g></g><g fill="#ffffff" fill-opacity="1"><g transform="translate(183.843048, 265.444142)"><g/></g></g><g fill="#ffffff" fill-opacity="1"><g transform="translate(189.424772, 265.444142)"><g><path d="M 7.90625 -13.625 L 13.40625 0 L 10.078125 0 L 9.0625 -2.71875 L 3.875 -2.71875 L 2.875 0 L -0.46875 0 L 5.03125 -13.625 Z M 8.015625 -5.453125 L 6.484375 -9.40625 L 6.453125 -9.40625 L 4.9375 -5.453125 Z M 8.015625 -5.453125 "/></g></g></g><g fill="#ffffff" fill-opacity="1"><g transform="translate(203.443961, 265.444142)"><g><path d="M 0.125 -10.90625 L 0.125 -13.625 L 9.71875 -13.625 L 9.71875 -10.90625 L 6.46875 -10.90625 L 6.46875 0 L 3.375 0 L 3.375 -10.90625 Z M 0.125 -10.90625 "/></g></g></g><g fill="#ffffff" fill-opacity="1"><g transform="translate(214.358952, 265.444142)"><g><path d="M 8.78125 -13.625 L 8.78125 -10.90625 L 4.09375 -10.90625 L 4.09375 -8.1875 L 8.59375 -8.1875 L 8.59375 -5.46875 L 4.09375 -5.46875 L 4.09375 -2.71875 L 8.78125 -2.71875 L 8.78125 0 L 0.984375 0 L 0.984375 -13.625 Z M 8.78125 -13.625 "/></g></g></g><g fill="#ffffff" fill-opacity="1"><g transform="translate(225.009761, 265.444142)"><g><path d="M 0.984375 -13.625 L 5.859375 -13.625 C 7.171875 -13.625 8.238281 -13.273438 9.0625 -12.578125 C 9.894531 -11.878906 10.3125 -10.878906 10.3125 -9.578125 C 10.3125 -8.578125 10.054688 -7.738281 9.546875 -7.0625 C 9.046875 -6.382812 8.367188 -5.90625 7.515625 -5.625 L 12.203125 0 L 8.265625 0 L 4.09375 -5.390625 L 4.09375 0 L 0.984375 0 Z M 4.09375 -7.578125 L 4.453125 -7.578125 C 4.742188 -7.578125 4.988281 -7.582031 5.1875 -7.59375 C 5.382812 -7.601562 5.609375 -7.640625 5.859375 -7.703125 C 6.117188 -7.773438 6.320312 -7.867188 6.46875 -7.984375 C 6.625 -8.109375 6.753906 -8.285156 6.859375 -8.515625 C 6.972656 -8.753906 7.03125 -9.035156 7.03125 -9.359375 C 7.03125 -9.691406 6.972656 -9.972656 6.859375 -10.203125 C 6.753906 -10.429688 6.625 -10.609375 6.46875 -10.734375 C 6.320312 -10.859375 6.117188 -10.953125 5.859375 -11.015625 C 5.609375 -11.078125 5.382812 -11.113281 5.1875 -11.125 C 4.988281 -11.132812 4.742188 -11.140625 4.453125 -11.140625 L 4.09375 -11.140625 Z M 4.09375 -7.578125 "/></g></g></g><g fill="#ffffff" fill-opacity="1"><g transform="translate(237.906165, 265.444142)"><g><path d="M 0.125 -10.90625 L 0.125 -13.625 L 9.71875 -13.625 L 9.71875 -10.90625 L 6.46875 -10.90625 L 6.46875 0 L 3.375 0 L 3.375 -10.90625 Z M 0.125 -10.90625 "/></g></g></g><g fill="#ffffff" fill-opacity="1"><g transform="translate(248.821161, 265.444142)"><g><path d="M 7.90625 -13.625 L 13.40625 0 L 10.078125 0 L 9.0625 -2.71875 L 3.875 -2.71875 L 2.875 0 L -0.46875 0 L 5.03125 -13.625 Z M 8.015625 -5.453125 L 6.484375 -9.40625 L 6.453125 -9.40625 L 4.9375 -5.453125 Z M 8.015625 -5.453125 "/></g></g></g></svg>